<svg width="281" height="36" viewBox="0 0 281 36" fill="none" xmlns="http://www.w3.org/2000/svg">
<path d="M0 0.5H17.5C27.1649 0.5 35 8.33501 35 18V35.5H17.5C7.83501 35.5 0 27.6649 0 18V0.5Z" fill="#151421"/>
<path d="M62.6023 4.59659C65.625 4.59659 68.2367 5.16667 70.4375 6.30682C72.6648 7.42045 74.3617 9.02462 75.5284 11.1193C76.7216 13.214 77.3182 15.6799 77.3182 18.517C77.3182 21.3542 76.7216 23.8201 75.5284 25.9148C74.3617 27.983 72.6648 29.5739 70.4375 30.6875C68.2367 31.7746 65.625 32.3182 62.6023 32.3182H53.9716V4.59659H62.6023ZM62.6023 29.3352C66.1818 29.3352 68.9129 28.3939 70.7955 26.5114C72.678 24.6023 73.6193 21.9375 73.6193 18.517C73.6193 15.0701 72.6648 12.3788 70.7557 10.4432C68.8731 8.50757 66.1553 7.53977 62.6023 7.53977H57.5909V29.3352H62.6023Z" fill="#151421"/>
<path d="M101.979 20.5852C101.979 21.2746 101.939 22.0038 101.859 22.7727H84.4387C84.5713 24.9205 85.3005 26.6042 86.6262 27.8239C87.9785 29.017 89.6092 29.6136 91.5183 29.6136C93.0827 29.6136 94.3819 29.2557 95.416 28.5398C96.4766 27.7973 97.219 26.8163 97.6433 25.5966H101.541C100.958 27.6913 99.791 29.4015 98.041 30.7273C96.291 32.0265 94.1168 32.6761 91.5183 32.6761C89.4501 32.6761 87.594 32.2121 85.9501 31.2841C84.3327 30.3561 83.06 29.0436 82.1319 27.3466C81.2039 25.6231 80.7399 23.6345 80.7399 21.3807C80.7399 19.1269 81.1906 17.1515 82.0921 15.4545C82.9937 13.7576 84.2531 12.4583 85.8706 11.5568C87.5145 10.6288 89.3971 10.1648 91.5183 10.1648C93.5865 10.1648 95.416 10.6155 97.0069 11.517C98.5978 12.4186 99.8175 13.6648 100.666 15.2557C101.541 16.8201 101.979 18.5966 101.979 20.5852ZM98.2399 19.8295C98.2399 18.4508 97.9349 17.2708 97.3251 16.2898C96.7153 15.2822 95.88 14.5265 94.8194 14.0227C93.7853 13.4924 92.6319 13.2273 91.3592 13.2273C89.5296 13.2273 87.9653 13.8106 86.666 14.9773C85.3933 16.1439 84.6641 17.7614 84.4785 19.8295H98.2399Z" fill="#151421"/>
<path d="M114.87 28.9773L121.631 10.5227H125.489L116.938 32.3182H112.722L104.171 10.5227H108.068L114.87 28.9773Z" fill="#151421"/>
<path d="M160.336 13.3864C160.336 15.0038 159.964 16.4886 159.222 17.8409C158.48 19.1667 157.339 20.2405 155.802 21.0625C154.264 21.8845 152.355 22.2955 150.074 22.2955H145.858V32.3182H139.057V4.39773H150.074C152.302 4.39773 154.184 4.7822 155.722 5.55113C157.26 6.32007 158.413 7.38068 159.182 8.73295C159.951 10.0852 160.336 11.6364 160.336 13.3864ZM149.557 16.8864C150.856 16.8864 151.824 16.5814 152.461 15.9716C153.097 15.3617 153.415 14.5 153.415 13.3864C153.415 12.2727 153.097 11.411 152.461 10.8011C151.824 10.1913 150.856 9.88636 149.557 9.88636H145.858V16.8864H149.557Z" fill="#151421"/>
<path d="M162.524 21.1818C162.524 18.9015 162.948 16.8996 163.797 15.1761C164.672 13.4527 165.852 12.1269 167.337 11.1989C168.821 10.2708 170.479 9.80682 172.308 9.80682C173.873 9.80682 175.238 10.125 176.405 10.7614C177.598 11.3977 178.513 12.233 179.149 13.267V10.125H185.95V32.3182H179.149V29.1761C178.486 30.2102 177.558 31.0455 176.365 31.6818C175.198 32.3182 173.833 32.6364 172.268 32.6364C170.465 32.6364 168.821 32.1724 167.337 31.2443C165.852 30.2898 164.672 28.9508 163.797 27.2273C162.948 25.4773 162.524 23.4621 162.524 21.1818ZM179.149 21.2216C179.149 19.5246 178.672 18.1856 177.717 17.2045C176.789 16.2235 175.649 15.733 174.297 15.733C172.945 15.733 171.791 16.2235 170.837 17.2045C169.909 18.1591 169.445 19.4848 169.445 21.1818C169.445 22.8788 169.909 24.2311 170.837 25.2386C171.791 26.2197 172.945 26.7102 174.297 26.7102C175.649 26.7102 176.789 26.2197 177.717 25.2386C178.672 24.2576 179.149 22.9186 179.149 21.2216Z" fill="#151421"/>
<path d="M197.672 2.88636V32.3182H190.871V2.88636H197.672Z" fill="#151421"/>
<path d="M223.521 20.8636C223.521 21.5 223.481 22.1629 223.402 22.8523H208.009C208.116 24.2311 208.553 25.2917 209.322 26.0341C210.117 26.75 211.085 27.108 212.225 27.108C213.922 27.108 215.102 26.392 215.765 24.9602H223.004C222.633 26.4186 221.956 27.7311 220.975 28.8977C220.021 30.0644 218.814 30.9792 217.356 31.642C215.898 32.3049 214.267 32.6364 212.464 32.6364C210.29 32.6364 208.354 32.1724 206.657 31.2443C204.96 30.3163 203.634 28.9905 202.68 27.267C201.725 25.5436 201.248 23.5284 201.248 21.2216C201.248 18.9148 201.712 16.8996 202.64 15.1761C203.595 13.4527 204.92 12.1269 206.617 11.1989C208.314 10.2708 210.263 9.80682 212.464 9.80682C214.612 9.80682 216.521 10.2576 218.191 11.1591C219.862 12.0606 221.161 13.3466 222.089 15.017C223.044 16.6875 223.521 18.6364 223.521 20.8636ZM216.561 19.0739C216.561 17.9072 216.163 16.9792 215.367 16.2898C214.572 15.6004 213.578 15.2557 212.384 15.2557C211.244 15.2557 210.277 15.5871 209.481 16.25C208.712 16.9129 208.235 17.8542 208.049 19.0739H216.561Z" fill="#151421"/>
<path d="M239.478 26.5511V32.3182H236.018C233.552 32.3182 231.63 31.7216 230.251 30.5284C228.872 29.3087 228.183 27.3333 228.183 24.6023V15.7727H225.478V10.125H228.183V4.71591H234.984V10.125H239.438V15.7727H234.984V24.6818C234.984 25.3447 235.143 25.822 235.461 26.1136C235.779 26.4053 236.31 26.5511 237.052 26.5511H239.478Z" fill="#151421"/>
<path d="M255.636 26.5511V32.3182H252.176C249.71 32.3182 247.787 31.7216 246.408 30.5284C245.03 29.3087 244.34 27.3333 244.34 24.6023V15.7727H241.636V10.125H244.34V4.71591H251.141V10.125H255.596V15.7727H251.141V24.6818C251.141 25.3447 251.301 25.822 251.619 26.1136C251.937 26.4053 252.467 26.5511 253.21 26.5511H255.636Z" fill="#151421"/>
<path d="M280.345 20.8636C280.345 21.5 280.305 22.1629 280.225 22.8523H264.833C264.939 24.2311 265.377 25.2917 266.146 26.0341C266.941 26.75 267.909 27.108 269.049 27.108C270.746 27.108 271.926 26.392 272.589 24.9602H279.828C279.456 26.4186 278.78 27.7311 277.799 28.8977C276.845 30.0644 275.638 30.9792 274.18 31.642C272.721 32.3049 271.091 32.6364 269.288 32.6364C267.114 32.6364 265.178 32.1724 263.481 31.2443C261.784 30.3163 260.458 28.9905 259.504 27.267C258.549 25.5436 258.072 23.5284 258.072 21.2216C258.072 18.9148 258.536 16.8996 259.464 15.1761C260.418 13.4527 261.744 12.1269 263.441 11.1989C265.138 10.2708 267.087 9.80682 269.288 9.80682C271.435 9.80682 273.345 10.2576 275.015 11.1591C276.685 12.0606 277.985 13.3466 278.913 15.017C279.867 16.6875 280.345 18.6364 280.345 20.8636ZM273.384 19.0739C273.384 17.9072 272.987 16.9792 272.191 16.2898C271.396 15.6004 270.401 15.2557 269.208 15.2557C268.068 15.2557 267.1 15.5871 266.305 16.25C265.536 16.9129 265.059 17.8542 264.873 19.0739H273.384Z" fill="#151421"/>
</svg>
